<svg width="75" height="71" viewBox="0 0 75 71" fill="none" xmlns="http://www.w3.org/2000/svg">
<g clip-path="url(#clip0_87_9830)">
<path d="M38.8591 31.0431C43.2274 35.325 45.2192 38.158 48.0008 44.5571L50.9971 43.3426C48.049 36.5633 45.8109 33.3543 41.1092 28.7458L38.8591 31.0431ZM43.4534 49.1044C40.6707 42.7065 38.68 39.8724 34.3117 35.5904L36.5618 33.2932C41.2635 37.9017 43.5005 41.1095 46.4498 47.8899L43.4534 49.1044ZM29.7643 40.1378C34.1327 44.4197 36.1245 47.2528 38.9061 53.6518L41.9024 52.4373C38.9543 45.658 36.7162 42.449 32.0145 37.8405L29.7643 40.1378ZM60.3821 70.7555C56.1001 66.3872 53.2671 64.3954 46.8681 61.6138L48.0826 58.6174C54.8618 61.5655 58.0708 63.8037 62.6793 68.5054L60.3821 70.7555ZM51.4154 57.0664C57.8133 59.8492 60.6487 61.841 64.9294 66.2081L67.2267 63.958C62.6182 59.2563 59.4104 57.0194 52.6299 54.0701L51.4154 57.0664ZM69.4768 61.6608C65.1948 57.2925 62.3618 55.3007 55.9628 52.5191L57.1773 49.5227C63.9565 52.4708 67.1655 54.709 71.774 59.4107L69.4768 61.6608ZM47.4811 28.29L50.8917 24.8795L48.5346 22.5224L45.1241 25.9329L47.4811 28.29ZM53.8796 30.1411L50.4691 33.5516L48.1121 31.1946L51.5226 27.7841L53.8796 30.1411ZM53.457 38.8132L56.8676 35.4027L54.5105 33.0457L51.1 36.4562L53.457 38.8132ZM72.2299 53.0387L75.6404 49.6282L77.9974 51.9852L74.5869 55.3957L72.2299 53.0387ZM70.3788 46.6402L66.9683 50.0508L69.3253 52.4078L72.7358 48.9973L70.3788 46.6402ZM61.7066 47.0628L65.1171 43.6523L67.4742 46.0093L64.0637 49.4198L61.7066 47.0628Z" fill="#489F2D"/>
<path fill-rule="evenodd" clip-rule="evenodd" d="M65.2663 35.253L65.6329 35.4946C74.256 38.6472 81.2962 41.7539 86.5913 50.5232C86.9651 51.1475 87.1248 51.8711 87.0452 52.5799C86.9655 53.2886 86.651 53.9421 86.1514 54.4374L85.8319 54.7568C86.5152 55.769 87.2076 56.8389 87.9092 57.9664C88.1045 58.2808 88.1905 58.6481 88.1534 59.009C88.1162 59.3699 87.958 59.7033 87.7043 59.9556L58.6706 88.9892C57.9509 89.7089 56.7273 89.5584 56.1296 88.6924C50.1546 80.0231 45.3146 74.9943 37.5844 69.2377C36.7276 69.5029 35.8055 69.523 34.9203 69.2959C34.035 69.0687 33.2211 68.6032 32.5687 67.9507C31.9162 67.2982 31.4506 66.4843 31.2235 65.5991C30.9963 64.7139 31.0165 63.7918 31.2817 62.935C25.5262 55.206 20.495 50.3635 11.827 44.3898C11.6225 44.2502 11.4497 44.0683 11.3211 43.8571C11.1924 43.6458 11.1109 43.4104 11.0826 43.1677C11.0542 42.9249 11.0796 42.6808 11.157 42.4529C11.2344 42.2249 11.3618 42.0186 11.5301 41.8488L40.5638 12.8151C40.816 12.5614 41.1495 12.4032 41.5104 12.366C41.8713 12.3288 42.2386 12.4148 42.553 12.6102C43.6353 13.2825 44.7053 13.9751 45.7625 14.6874L46.082 14.368C47.0824 13.3676 48.6869 13.1372 49.9962 13.9281C58.7654 19.2232 61.8722 26.2634 65.0248 34.8865L65.2663 35.253ZM64.3906 38.4858C72.9925 41.6218 79.0946 44.368 83.7773 52.0974L58.1439 77.7308C58.1439 77.7308 58.1362 77.7322 58.1254 77.7305C58.1102 77.729 58.0954 77.7241 58.0822 77.716C58.069 77.7079 58.0577 77.697 58.0493 77.684C53.2955 70.8884 47.7766 67.4954 40.8944 64.6808C40.8893 63.9299 40.7119 63.184 40.376 62.5004L64.3906 38.4858ZM62.0324 36.1299L38.019 60.1433C37.3354 59.8074 36.5895 59.6301 35.8386 59.625C33.0251 52.7416 29.6298 47.2227 22.8354 42.4701C22.822 42.4617 22.8107 42.4503 22.8025 42.4368C22.7942 42.4234 22.7891 42.4083 22.7877 42.3928L22.7865 42.3916L22.7897 42.3743L48.422 16.7421C56.1514 21.4247 58.8964 27.528 62.0324 36.1299ZM84.4412 58.5046C84.1284 58.016 83.8182 57.5405 83.5105 57.0782L60.5009 80.0878C59.0117 81.5771 56.5625 81.1742 55.3866 79.4958C51.7243 74.2579 47.5921 71.2625 42.3195 68.8206C48.3147 73.604 52.709 78.2961 57.6687 85.2771L84.4412 58.5046ZM31.6987 58.1999C29.258 52.9284 26.2614 48.795 21.0235 45.1328C19.3452 43.9592 18.9423 41.5077 20.4315 40.0185L43.4411 17.0089C42.9788 16.7012 42.5034 16.391 42.0148 16.0782L15.2423 42.8507C22.2232 47.8104 26.9141 52.2035 31.6987 58.1999Z" fill="#489F2D"/>
</g>
<defs>
<clipPath id="clip0_87_9830">
<rect width="80" height="77.1711" fill="white" transform="translate(54.5664 -6) rotate(45)"/>
</clipPath>
</defs>
</svg>
