<svg width="91" height="90" viewBox="0 0 91 90" fill="none" xmlns="http://www.w3.org/2000/svg">
<path d="M68.2817 5.82751L83.9304 22.14V84.1725H25.4727V84.375H84.1301V22.3453L68.2817 5.82751Z" fill="#909090"/>
<path d="M68.0881 5.625H25.2734V84.1725H83.9309V22.1428L68.0881 5.625Z" fill="#F4F4F4"/>
<path d="M24.843 9.84375H6.87109V29.0447H63.4023V9.84375H24.843Z" fill="#7A7B7C"/>
<path d="M63.701 28.7184H7.23438V9.50342H63.701V28.7184Z" fill="#DD2025"/>
<path d="M25.9572 12.7519H22.2812V26.2519H25.1725V21.6984L25.8109 21.735C26.4315 21.7264 27.0464 21.6153 27.6306 21.4059C28.1443 21.2315 28.6163 20.9529 29.0172 20.5875C29.4283 20.2428 29.7513 19.8051 29.9594 19.3106C30.2441 18.4914 30.3449 17.6195 30.2547 16.7569C30.2387 16.1405 30.1306 15.53 29.9341 14.9456C29.757 14.5232 29.4936 14.1424 29.1609 13.8276C28.8282 13.5128 28.4334 13.271 28.0019 13.1175C27.6298 12.9797 27.2442 12.8817 26.8516 12.825C26.5549 12.7767 26.2549 12.7522 25.9544 12.7519M25.4228 19.2038H25.1725V15.0413H25.7153C25.9549 15.024 26.1953 15.0608 26.4187 15.1489C26.6422 15.237 26.843 15.3742 27.0062 15.5503C27.3446 16.0032 27.5254 16.5544 27.5209 17.1197C27.5209 17.8116 27.5209 18.4387 26.8966 18.8803C26.4469 19.128 25.9348 19.2422 25.4228 19.2038ZM35.7475 12.7153C35.4353 12.7153 35.1316 12.7378 34.9178 12.7463L34.2484 12.7631H32.0547V26.2631H34.6366C35.6231 26.2885 36.6052 26.1213 37.5278 25.7709C38.2706 25.4776 38.9282 25.0028 39.4403 24.39C39.9422 23.7745 40.3006 23.0549 40.4894 22.2834C40.7112 21.4114 40.819 20.5142 40.81 19.6144C40.8651 18.5517 40.7828 17.4863 40.5653 16.4447C40.3571 15.6788 39.9717 14.9726 39.4403 14.3831C39.0235 13.9064 38.5108 13.5231 37.9356 13.2581C37.4429 13.0298 36.9245 12.8617 36.3916 12.7575C36.1796 12.7228 35.9651 12.7068 35.7503 12.7097M35.2384 23.7825H34.9572V15.165H34.9937C35.5736 15.098 36.1603 15.2026 36.6812 15.4659C37.0628 15.7706 37.3737 16.1544 37.5925 16.5909C37.8286 17.0503 37.9647 17.5545 37.9919 18.0703C38.0172 18.6891 37.9919 19.1953 37.9919 19.6144C38.0023 20.0971 37.9712 20.5798 37.8991 21.0572C37.8106 21.5467 37.6504 22.0206 37.4237 22.4634C37.1677 22.8764 36.8179 23.2233 36.4028 23.4759C36.0561 23.7009 35.645 23.8057 35.2328 23.7741M49.5203 12.7631H42.6859V26.2631H45.5772V20.9081H49.2334V18.3994H45.5772V15.2719H49.5147V12.7631" fill="#464648"/>
<path d="M61.7609 56.9672C61.7609 56.9672 70.7271 55.3416 70.7271 58.4044C70.7271 61.4672 65.1724 60.2213 61.7609 56.9672ZM55.1318 57.2007C53.707 57.5146 52.3187 57.9755 50.989 58.576L52.114 56.0447C53.239 53.5135 54.4062 50.0625 54.4062 50.0625C55.7453 52.3241 57.3074 54.446 59.0693 56.3963C57.743 56.5939 56.4285 56.8643 55.1318 57.2063V57.2007ZM51.5824 38.9194C51.5824 36.2504 52.4459 35.5219 53.1181 35.5219C53.7903 35.5219 54.5468 35.8454 54.5721 38.1629C54.3528 40.4931 53.8649 42.7903 53.1181 45.0085C52.0916 43.1474 51.5618 41.0532 51.5796 38.9279L51.5824 38.9194ZM38.5071 68.4957C35.7565 66.8504 44.2756 61.785 45.8196 61.6219C45.8112 61.6247 41.3871 70.2169 38.5071 68.4957ZM73.3456 58.7672C73.3174 58.486 73.0643 55.3725 67.5237 55.5047C65.2142 55.4643 62.9056 55.6271 60.6246 55.9913C58.4137 53.7659 56.5105 51.2545 54.9659 48.5241C55.9384 45.7096 56.5278 42.7771 56.7181 39.8054C56.6365 36.4304 55.8293 34.4954 53.2418 34.5235C50.6543 34.5516 50.2774 36.8157 50.6178 40.1851C50.9508 42.4493 51.5796 44.6601 52.4881 46.7607C52.4881 46.7607 51.2928 50.4816 49.7121 54.1829C48.1315 57.8841 47.0515 59.8247 47.0515 59.8247C44.3025 60.7185 41.7149 62.0479 39.3874 63.7622C37.0699 65.9194 36.1278 67.576 37.3484 69.2325C38.4003 70.6613 42.0818 70.9847 45.3724 66.6732C47.1179 64.4441 48.715 62.1028 50.1537 59.6644C50.1537 59.6644 55.1712 58.2891 56.7321 57.9122C58.2931 57.5354 60.1803 57.2372 60.1803 57.2372C60.1803 57.2372 64.7618 61.8469 69.1803 61.6838C73.5987 61.5207 73.3849 59.0429 73.3568 58.7729" fill="#DD2025"/>
<path d="M67.8711 5.84155V22.3594H83.7139L67.8711 5.84155Z" fill="#909090"/>
<path d="M68.0859 5.625V22.1428H83.9287L68.0859 5.625Z" fill="#F4F4F4"/>
<path d="M25.7423 12.5353H22.0664V26.0353H24.9689V21.4847L25.6102 21.5213C26.2307 21.5127 26.8456 21.4015 27.4298 21.1922C27.9435 21.0178 28.4155 20.7392 28.8164 20.3738C29.2244 20.0281 29.5445 19.5905 29.7502 19.0969C30.0349 18.2776 30.1357 17.4057 30.0455 16.5431C30.0294 15.9268 29.9214 15.3163 29.7248 14.7319C29.5477 14.3095 29.2844 13.9287 28.9517 13.6139C28.619 13.2991 28.2242 13.0572 27.7927 12.9038C27.4189 12.7646 27.0314 12.6656 26.6367 12.6084C26.3401 12.5601 26.0401 12.5357 25.7395 12.5353M25.208 18.9872H24.9577V14.8247H25.5033C25.7428 14.8074 25.9832 14.8442 26.2067 14.9323C26.4301 15.0204 26.6309 15.1576 26.7942 15.3338C27.1326 15.7866 27.3134 16.3378 27.3089 16.9031C27.3089 17.595 27.3089 18.2222 26.6845 18.6638C26.2348 18.9115 25.7227 19.0229 25.2108 18.9844M35.5327 12.4988C35.2205 12.4988 34.9167 12.5213 34.703 12.5297L34.042 12.5466H31.8483V26.0466H34.4302C35.4167 26.0719 36.3988 25.9048 37.3214 25.5544C38.0642 25.261 38.7217 24.7863 39.2339 24.1734C39.7358 23.5579 40.0942 22.8383 40.283 22.0669C40.5048 21.1948 40.6126 20.2976 40.6036 19.3978C40.6586 18.3351 40.5764 17.2698 40.3589 16.2281C40.1507 15.4623 39.7653 14.7561 39.2339 14.1666C38.8171 13.6899 38.3043 13.3065 37.7292 13.0416C37.2365 12.8132 36.7181 12.6451 36.1852 12.541C35.9732 12.5062 35.7586 12.4902 35.5439 12.4931M35.032 23.5659H34.7508V14.9484H34.7873C35.3672 14.8814 35.9539 14.986 36.4748 15.2494C36.8564 15.5541 37.1673 15.9379 37.3861 16.3744C37.6222 16.8338 37.7583 17.338 37.7855 17.8538C37.8108 18.4725 37.7855 18.9788 37.7855 19.3978C37.7959 19.8805 37.7648 20.3632 37.6927 20.8406C37.6042 21.3302 37.444 21.804 37.2173 22.2469C36.9613 22.6599 36.6115 23.0067 36.1964 23.2594C35.8497 23.4844 35.4385 23.5891 35.0264 23.5575M49.3055 12.5466H42.4711V26.0466H45.3623V20.6916H49.0186V18.1828H45.3623V15.0553H49.2998V12.5466" fill="white"/>
</svg>
