<svg width="119" height="91" viewBox="0 0 119 91" fill="none" xmlns="http://www.w3.org/2000/svg">
<path fill-rule="evenodd" clip-rule="evenodd" d="M87.7718 2.38002C88.216 1.66673 88.8616 1.10111 89.6271 0.754655C90.3927 0.408196 91.2437 0.296444 92.0728 0.433521L113.926 4.08002C115.037 4.26536 116.03 4.88425 116.685 5.80071C117.34 6.71716 117.604 7.8562 117.42 8.96752L113.782 30.8295C113.643 31.6582 113.262 32.4272 112.686 33.0393C112.11 33.6513 111.366 34.079 110.547 34.2682C109.728 34.4574 108.872 34.3997 108.086 34.1023C107.3 33.8049 106.62 33.2813 106.132 32.5975L100.233 24.3525L69.8538 43.7665C68.5583 44.5955 67.0068 44.9282 65.4853 44.7032C63.9638 44.4783 62.575 43.7109 61.5748 42.5425L44.6343 22.7375L12.9548 39.015C11.4511 39.7883 9.70191 39.9325 8.09191 39.416C6.48191 38.8996 5.14302 37.7647 4.36979 36.261C3.59655 34.7574 3.4523 33.0081 3.96877 31.3981C4.48525 29.7881 5.62014 28.4493 7.12378 27.676L43.2913 9.08652C44.5682 8.43054 46.0291 8.22472 47.4375 8.5024C48.8459 8.78007 50.1194 9.52498 51.0518 10.6165L67.6608 30.039L92.8208 13.957L87.9163 7.09752C87.4287 6.41349 87.1547 5.60031 87.129 4.76067C87.1033 3.92104 87.327 3.09261 87.7718 2.38002ZM32.1308 44.115L7.46378 58.225C6.48932 58.7816 5.67905 59.5857 5.11489 60.5558C4.55072 61.5259 4.25264 62.6278 4.25079 63.75V112.625C4.25079 116.144 7.10679 119 10.6258 119H32.1308V44.115ZM42.7558 119H73.9338V61.098L59.9173 68.102L45.9093 43.588C45.2019 42.3413 44.0934 41.3707 42.7643 40.834L42.7558 119ZM108.376 119H84.5588V55.7855L105.528 45.2965C106.5 44.8113 107.58 44.5825 108.665 44.6318C109.75 44.6811 110.805 45.0069 111.729 45.5783C112.653 46.1497 113.415 46.9477 113.944 47.8965C114.473 48.8454 114.751 49.9137 114.751 51V112.625C114.751 114.316 114.079 115.937 112.884 117.133C111.688 118.328 110.067 119 108.376 119Z" fill="#B4B4B4" fill-opacity="0.2"/>
</svg>
