<svg width="73" height="73" viewBox="0 0 73 73" fill="none" xmlns="http://www.w3.org/2000/svg">
<g clip-path="url(#clip0_113_4202)">
<path d="M9.97161 5.47817C10.9163 4.90131 12.0041 4.60159 13.1109 4.61319H60.0871C61.3852 4.63964 62.6379 5.09568 63.6491 5.90996C64.6604 6.72424 65.3732 7.8508 65.676 9.11336C65.8158 9.76635 65.8716 10.4345 65.842 11.1016V36.8802H62.2138C62.0438 36.8877 61.8744 36.9047 61.7063 36.9309C61.2605 36.8965 60.813 36.888 60.3662 36.9055C59.6742 36.9217 58.9592 36.8732 58.2579 36.9378C57.9523 36.8957 57.6436 36.8802 57.3353 36.8917H46.4043C45.943 36.8917 45.5002 36.9102 45.0504 36.8686L45.281 36.7187L30.6272 27.9237V36.894C25.5227 36.8825 20.4159 36.894 15.3114 36.894C15.1176 36.898 14.9242 36.9142 14.7324 36.9425C14.2434 36.8686 13.7475 36.9055 13.2516 36.9055C12.5965 36.9194 11.9368 36.8709 11.2841 36.9401C11.0908 36.9109 10.8959 36.8939 10.7005 36.8894H7.14603C7.15987 28.5049 7.14603 20.1204 7.14603 11.7475C7.09742 10.8745 7.15239 9.99881 7.3098 9.13874C7.48857 8.38255 7.81597 7.66948 8.27295 7.04103C8.72993 6.41259 9.30736 5.88132 9.97161 5.47817ZM11.2172 10.525C10.9016 10.6015 10.6201 10.7799 10.4162 11.0326C10.2123 11.2853 10.0974 11.5982 10.0893 11.9228V14.9583C10.1124 15.3285 10.274 15.6764 10.542 15.9328C10.81 16.1893 11.1646 16.3354 11.5355 16.3422H14.5548C14.9177 16.3199 15.2596 16.1645 15.515 15.9057C15.7704 15.6469 15.9213 15.303 15.9388 14.9398C15.9503 13.9572 15.9388 12.9723 15.9388 11.9897C15.9453 11.7204 15.8781 11.4545 15.7443 11.2207C15.6105 10.9869 15.4154 10.7942 15.1799 10.6634C14.9255 10.5312 14.6405 10.4691 14.3542 10.4835H11.7339C11.5606 10.4779 11.3873 10.4918 11.2172 10.525ZM58.1357 10.525C57.8262 10.6081 57.5521 10.7896 57.3549 11.0422C57.1576 11.2948 57.0479 11.6047 57.0424 11.9251V14.9375C57.0599 15.3007 57.2108 15.6446 57.4661 15.9034C57.7215 16.1622 58.0634 16.3176 58.4263 16.3399C59.432 16.3515 60.4377 16.3399 61.4434 16.3399C61.8165 16.3329 62.173 16.1848 62.4414 15.9254C62.7097 15.6661 62.8698 15.3148 62.8896 14.9421C62.9034 13.9318 62.8896 12.9216 62.8896 11.9113C62.8797 11.5451 62.7339 11.1956 62.4807 10.9309C62.2275 10.6662 61.8849 10.5051 61.5195 10.4789C60.7168 10.4581 59.9049 10.4789 59.1091 10.4789C58.7836 10.4629 58.4573 10.4814 58.1357 10.5342V10.525ZM11.2218 19.3293C10.9855 19.3854 10.7668 19.499 10.5849 19.66C10.403 19.8209 10.2637 20.0242 10.1792 20.2519C10.0952 20.5407 10.0631 20.8422 10.0846 21.1423V23.7603C10.105 24.1207 10.2574 24.461 10.5126 24.7162C10.7679 24.9715 11.1082 25.1238 11.4686 25.1442C12.3912 25.1627 13.3023 25.1442 14.2181 25.1442C14.5296 25.1723 14.8431 25.1207 15.1292 24.9943C15.3776 24.8734 15.5871 24.6852 15.7339 24.4512C15.8807 24.2171 15.9589 23.9466 15.9595 23.6703V20.7202C15.951 20.3505 15.8041 19.9975 15.5478 19.731C15.2916 19.4645 14.9446 19.3039 14.5756 19.2808C13.796 19.2624 13.014 19.2808 12.2321 19.2808C11.8945 19.2661 11.5564 19.2823 11.2218 19.3293ZM58.1334 19.3293C57.9052 19.3918 57.6953 19.5082 57.5215 19.6688C57.3476 19.8293 57.215 20.0293 57.1346 20.2519C57.0503 20.5415 57.0183 20.8438 57.0401 21.1446V23.7533C57.0585 24.1191 57.2123 24.4649 57.4714 24.7237C57.7306 24.9824 58.0767 25.1356 58.4425 25.1534C59.379 25.1673 60.3154 25.1534 61.2519 25.1534C61.5549 25.1725 61.8574 25.1104 62.1284 24.9735C62.3606 24.8477 62.5547 24.6619 62.6906 24.4355C62.8265 24.2092 62.8992 23.9505 62.9011 23.6864V20.7248C62.8934 20.358 62.7487 20.0075 62.4956 19.742C62.2425 19.4765 61.8993 19.3153 61.5333 19.2901C60.7283 19.2693 59.9187 19.2901 59.1183 19.2901C58.7884 19.2716 58.4574 19.2886 58.1311 19.3408L58.1334 19.3293ZM11.2195 28.1405C10.9023 28.2163 10.6192 28.395 10.4143 28.6487C10.2094 28.9025 10.0943 29.2169 10.0869 29.5429C10.0869 30.5532 10.0754 31.5658 10.0869 32.5761C10.1101 32.9462 10.2717 33.2942 10.5397 33.5506C10.8076 33.807 11.1623 33.9532 11.5332 33.96H14.5318C14.8975 33.9422 15.2436 33.789 15.5028 33.5303C15.762 33.2715 15.9157 32.9257 15.9342 32.5599V29.5452C15.9266 29.1729 15.7786 28.8172 15.5198 28.5494C15.261 28.2816 14.9105 28.1216 14.5387 28.1013C13.736 28.0851 12.9241 28.1013 12.1283 28.1013C11.8248 28.0844 11.5204 28.0975 11.2195 28.1405ZM58.1242 28.1543C57.8987 28.2164 57.6912 28.3312 57.5187 28.4892C57.3463 28.6472 57.2138 28.8439 57.1323 29.0631C57.0483 29.3519 57.0163 29.6534 57.0378 29.9535V32.5622C57.0556 32.928 57.2088 33.2741 57.4675 33.5333C57.7263 33.7924 58.0721 33.9462 58.4379 33.9646C59.4412 33.9762 60.4446 33.9646 61.4503 33.9646C61.8234 33.9582 62.1802 33.8107 62.449 33.5518C62.7178 33.2929 62.8785 32.9418 62.8988 32.5691C62.9127 31.5589 62.8988 30.5486 62.8988 29.5406C62.8911 29.1742 62.7468 28.824 62.4942 28.5586C62.2415 28.2931 61.8988 28.1317 61.5333 28.1059C60.7283 28.0828 59.9187 28.1059 59.1206 28.1059C58.789 28.0815 58.4556 28.0931 58.1265 28.1405L58.1242 28.1543Z" fill="#245ECE"/>
<path d="M30.6373 27.9098C35.5211 30.8438 40.4057 33.7755 45.2911 36.7049L45.0605 36.8548C40.252 39.7335 35.4458 42.6152 30.6419 45.5V36.8825C30.6373 33.8978 30.6358 30.9069 30.6373 27.9098Z" fill="white"/>
<path d="M7.14644 36.8779H10.7009C10.8963 36.8824 11.0912 36.8994 11.2845 36.9286C10.8997 37.0069 10.561 37.233 10.3411 37.5583C10.1378 37.9219 10.0486 38.3382 10.085 38.7531V41.1635C10.0841 41.3717 10.1243 41.578 10.2033 41.7707C10.2822 41.9633 10.3985 42.1384 10.5452 42.2861C10.692 42.4337 10.8665 42.5509 11.0586 42.631C11.2508 42.7111 11.4569 42.7525 11.6651 42.7528H14.4145C14.7806 42.7453 15.1325 42.61 15.4093 42.3703C15.6861 42.1306 15.8703 41.8016 15.93 41.4403C15.9484 40.4093 15.93 39.3644 15.93 38.3426C15.9259 38.0037 15.8036 37.677 15.5842 37.4188C15.3647 37.1606 15.062 36.9872 14.7282 36.9286C14.92 36.9003 15.1134 36.8842 15.3072 36.8802H30.623V45.4976C35.4315 42.6205 40.2377 39.7388 45.0415 36.8525C45.5029 36.894 45.9434 36.8687 46.3955 36.8756H57.3311C57.6394 36.8641 57.9481 36.8795 58.2537 36.9217C58.0115 36.9666 57.7844 37.0713 57.593 37.2264C57.4016 37.3815 57.2521 37.5821 57.1581 37.8097C57.0591 38.1122 57.0238 38.4318 57.0543 38.7485V41.0874C57.0408 41.3032 57.0723 41.5195 57.1468 41.7225C57.2213 41.9255 57.3371 42.1108 57.4869 42.2668C57.6368 42.4227 57.8174 42.5458 58.0173 42.6282C58.2171 42.7107 58.432 42.7508 58.6482 42.7459H61.3238C61.7329 42.7474 62.1265 42.5899 62.4217 42.3068C62.7169 42.0236 62.8906 41.6369 62.9061 41.2281V38.9584C62.9598 38.4929 62.8798 38.0216 62.6755 37.5998C62.569 37.427 62.428 37.278 62.2613 37.1621C62.0946 37.0462 61.9058 36.9659 61.7067 36.9263C61.8748 36.9001 62.0442 36.8831 62.2142 36.8756H65.8424C65.8678 40.8452 65.8424 44.8172 65.8424 48.7892V63.3046C65.835 64.7006 65.3351 66.0492 64.4308 67.1128C63.5114 68.195 62.2303 68.9065 60.8256 69.1149C60.0736 69.1866 59.3179 69.212 58.5628 69.191H15.1019C14.0488 69.2343 12.9939 69.1973 11.9465 69.0803C10.855 68.8762 9.84312 68.3683 9.02713 67.6152C8.21114 66.862 7.62406 65.894 7.33327 64.8223C7.18708 64.2607 7.11725 63.6819 7.12568 63.1016V38.9607C7.14183 38.2688 7.12107 37.5722 7.14644 36.8779ZM11.2868 45.7421C10.9311 45.7993 10.6116 45.9929 10.3964 46.2819C10.1798 46.5955 10.0713 46.9713 10.0874 47.3521V50.0324C10.1035 50.441 10.2773 50.8274 10.5724 51.1104C10.8675 51.3934 11.2608 51.5511 11.6697 51.5502H14.629C15.012 51.4835 15.357 51.2784 15.5986 50.9739C15.8401 50.6694 15.9614 50.2867 15.9392 49.8986V47.1515C15.9398 46.953 15.8991 46.7566 15.8197 46.5747C15.7403 46.3928 15.6239 46.2295 15.4779 46.095C15.167 45.8261 14.7653 45.6859 14.3546 45.7029H11.7343C11.5842 45.7014 11.4343 45.7145 11.2868 45.7421ZM58.263 45.7421C57.9394 45.7935 57.6433 45.9544 57.4241 46.1979C57.2049 46.4414 57.076 46.7528 57.0589 47.08V49.8986C57.0455 50.1141 57.0769 50.3301 57.1512 50.5328C57.2256 50.7356 57.3413 50.9206 57.4909 51.0763C57.6405 51.232 57.8208 51.355 58.0204 51.4373C58.2201 51.5197 58.4346 51.5597 58.6505 51.5548C59.6377 51.5548 60.6272 51.5663 61.6145 51.5548C61.9792 51.4814 62.3075 51.2843 62.5437 50.9969C62.7799 50.7094 62.9096 50.3491 62.9108 49.9771V47.6405C62.9637 47.1844 62.8639 46.7237 62.627 46.3303C62.485 46.1387 62.3 45.9832 62.0869 45.8762C61.8737 45.7692 61.6384 45.7138 61.3999 45.7145H59.1994C58.8871 45.6953 58.5738 45.7061 58.263 45.7421ZM11.2891 54.5464C11.1045 54.575 10.9276 54.6405 10.769 54.7393C10.6105 54.838 10.4735 54.9677 10.3665 55.1208C10.1669 55.4275 10.067 55.7884 10.0804 56.1541V58.7652C10.0831 59.1515 10.2242 59.5241 10.4781 59.8153C10.7321 60.1065 11.082 60.297 11.4644 60.3521H14.6383C15.0212 60.2849 15.366 60.0793 15.6072 59.7743C15.8483 59.4694 15.9689 59.0864 15.9461 58.6983V55.9558C15.9471 55.7569 15.9065 55.5601 15.8271 55.3778C15.7476 55.1955 15.6311 55.0317 15.4848 54.897C15.1757 54.6298 14.7767 54.4896 14.3684 54.5049H11.7366C11.5864 54.5042 11.4365 54.5181 11.2891 54.5464ZM58.2561 54.5464C57.9941 54.5891 57.7493 54.7039 57.5488 54.8778C57.3484 55.0518 57.2004 55.2781 57.1212 55.5314C57.0567 55.7796 57.0341 56.0368 57.0543 56.2925V59.0489C57.1149 59.4089 57.2992 59.7366 57.5754 59.9753C57.8516 60.214 58.2024 60.3489 58.5674 60.3568H61.3192C61.5332 60.3557 61.7448 60.3115 61.9413 60.2268C62.1378 60.1421 62.3152 60.0187 62.4629 59.8639C62.6106 59.7091 62.7256 59.5261 62.801 59.3258C62.8763 59.1255 62.9105 58.9121 62.9015 58.6983V56.0134C62.902 55.7661 62.8421 55.5223 62.7272 55.3033C62.6123 55.0842 62.4457 54.8965 62.2418 54.7563C61.6718 54.5055 61.0435 54.4177 60.4266 54.5026C59.7069 54.5257 58.9757 54.4565 58.2584 54.5441L58.2561 54.5464Z" fill="#2468EC"/>
</g>
<defs>
<clipPath id="clip0_113_4202">
<rect width="73" height="73" fill="white"/>
</clipPath>
</defs>
</svg>
