<svg width="75" height="75" viewBox="0 0 75 75" fill="none" xmlns="http://www.w3.org/2000/svg">
<path d="M49.7067 62.3086H12.8331V12.8458H34.3517V28.2008H49.7067V31.3335H56.0306V25.21L49.7098 18.883L43.6664 12.8458L37.5306 6.70996H12.8639C11.233 6.71568 9.67101 7.36819 8.52067 8.52431C7.37033 9.68044 6.72565 11.2457 6.72811 12.8766L6.69727 62.21C6.69481 63.8409 7.33949 65.4062 8.48983 66.5623C9.64017 67.7184 11.2022 68.3709 12.8331 68.3766H56.0306V62.21L49.7067 62.3086ZM66.0514 56.0433L71.4473 37.5433H66.8223L63.7389 48.1191L60.6556 37.5433H56.0306L61.4264 56.0433H66.0514Z" fill="#808080"/>
<path d="M31.3646 37.543H22.1146C21.2976 37.5454 20.5147 37.871 19.937 38.4488C19.3593 39.0265 19.0337 39.8093 19.0312 40.6263V52.9596C19.0337 53.7766 19.3593 54.5595 19.937 55.1372C20.5147 55.7149 21.2976 56.0405 22.1146 56.043H31.3646C32.1816 56.0405 32.9644 55.7149 33.5421 55.1372C34.1198 54.5595 34.4455 53.7766 34.4479 52.9596V49.8763H29.8229V51.418H23.6563V42.168H29.8229V43.7096H34.4479V40.6263C34.4455 39.8093 34.1198 39.0265 33.5421 38.4488C32.9644 37.871 32.1816 37.5454 31.3646 37.543ZM52.9479 42.1865V37.543H40.6146C39.7968 37.543 39.0126 37.8678 38.4343 38.4461C37.8561 39.0243 37.5313 39.8086 37.5313 40.6263V46.0437C37.5313 46.8615 37.8561 47.6457 38.4343 48.224C39.0126 48.8022 39.7968 49.1271 40.6146 49.1271H48.3538V51.418H37.5313V56.0646H49.8646C50.6823 56.0646 51.4666 55.7397 52.0448 55.1615C52.6231 54.5832 52.9479 53.799 52.9479 52.9812V47.5638C52.9479 46.7461 52.6231 45.9618 52.0448 45.3836C51.4666 44.8053 50.6823 44.4805 49.8646 44.4805H42.1254V42.1896L52.9479 42.1865Z" fill="#808080"/>
</svg>
